<!DOCTYPE svg PUBLIC "-//W3C//DTD SVG 1.1//EN" "http://www.w3.org/Graphics/SVG/1.1/DTD/svg11.dtd">
<!-- Uploaded to: SVG Repo, www.svgrepo.com, Transformed by: SVG Repo Mixer Tools -->
<svg fill="#ffffff" height="800px" width="800px" version="1.1" id="Layer_1" xmlns="http://www.w3.org/2000/svg" xmlns:xlink="http://www.w3.org/1999/xlink" viewBox="0 0 512.001 512.001" xml:space="preserve">
<g id="SVGRepo_bgCarrier" stroke-width="0"/>
<g id="SVGRepo_tracerCarrier" stroke-linecap="round" stroke-linejoin="round"/>
<g id="SVGRepo_iconCarrier"> <g> <g> <path d="M460.017,83.039l-24.082-72.246C433.787,4.347,427.755,0,420.962,0H91.041c-6.794,0-12.825,4.347-14.973,10.792 L51.985,83.038c-0.537,1.61-0.81,3.295-0.81,4.992v337.146c0,1.724,0.282,3.436,0.836,5.067l24.082,71.042 c2.172,6.406,8.183,10.717,14.948,10.717h329.921c6.765,0,12.777-4.31,14.948-10.717l24.082-71.042 c0.552-1.632,0.836-3.344,0.836-5.067V88.03C460.827,86.332,460.554,84.648,460.017,83.039z M102.417,31.567h307.168 l13.559,40.679H88.858L102.417,31.567z M409.646,480.433h-307.29l-13.381-39.475h334.052L409.646,480.433z M429.26,409.392H82.743 v-0.001V103.813H429.26V409.392z"/> </g> </g> <g> <g> <path d="M330.279,262.021c-2.664-19.04-12.414-37.808-27.452-52.847c-15.038-15.038-33.805-24.788-52.847-27.452 c-20.388-2.854-39.492,2.921-52.414,15.844s-18.697,32.026-15.844,52.413c2.665,19.041,12.414,37.809,27.452,52.847 s33.805,24.788,52.847,27.452c3.42,0.479,6.805,0.714,10.13,0.714c16.494,0,31.529-5.804,42.283-16.557 C327.359,301.513,333.133,282.408,330.279,262.021z M266.398,299.015c-12.111-1.695-24.832-8.442-34.901-18.511 c-13.695-13.695-20.399-31.39-18.65-45.337l63.983,63.983C272.821,299.648,269.094,299.393,266.398,299.015z M299.157,276.834 l-63.996-63.996c1.455-0.183,2.951-0.277,4.479-0.277c13.118,0,28.599,6.668,40.866,18.935 C294.201,245.191,300.905,262.888,299.157,276.834z"/> </g> </g> </g>
</svg>