<!DOCTYPE svg PUBLIC "-//W3C//DTD SVG 1.1//EN" "http://www.w3.org/Graphics/SVG/1.1/DTD/svg11.dtd">
<!-- Uploaded to: SVG Repo, www.svgrepo.com, Transformed by: SVG Repo Mixer Tools -->
<svg fill="#ffffff" height="800px" width="800px" version="1.1" id="Layer_1" xmlns="http://www.w3.org/2000/svg" xmlns:xlink="http://www.w3.org/1999/xlink" viewBox="0 0 512 512" xml:space="preserve">
<g id="SVGRepo_bgCarrier" stroke-width="0"/>
<g id="SVGRepo_tracerCarrier" stroke-linecap="round" stroke-linejoin="round"/>
<g id="SVGRepo_iconCarrier"> <g> <g> <path d="M378.596,374.959c1.729-2.724,3.363-5.429,4.953-8.222c13.649,12.403,31.767,20.005,51.619,20.005 c42.366,0,76.832-34.45,76.832-76.815c0-42.366-34.508-76.824-76.874-76.824c-8.883,0-17.481,1.541-25.394,4.326v-39.62 c0-9.364-7.508-17.354-16.872-17.354H48.544c-9.364,0-17.49,7.988-17.49,17.354v69.826c0,38.118,11.063,75.14,31.488,107.324 c9.008,14.194,19.96,27.051,32.045,38.355H16.956C7.592,413.314,0,420.905,0,430.27s7.592,16.956,16.956,16.956h30.942 c4.867,32.781,32.579,56.519,65.933,56.519h213.642c33.353,0,61.065-23.738,65.933-56.519h31.043 c9.364,0,16.956-7.592,16.956-16.956s-7.592-16.956-16.956-16.956h-77.631C358.902,402.01,369.588,389.153,378.596,374.959z M409.653,275.455c7.137-5.295,15.966-8.432,25.515-8.432c23.667-0.001,42.921,19.254,42.921,42.921 c0,23.667-19.254,42.921-42.921,42.921c-15.248,0-28.655-7.999-36.271-20.015C405.239,314.417,408.89,295.105,409.653,275.455z M358.666,447.225c-4.258,13.565-16.629,22.608-31.194,22.608H113.831c-14.565,0-26.935-9.043-31.194-22.608H358.666z M289.631,413.314H151.773c-52.73-28.26-86.808-84.98-86.808-145.679v-53.268H375.82v53.268 C375.82,328.334,342.361,385.054,289.631,413.314z"/> </g> </g> <g> <g> <path d="M169.907,122.299l-8.316-6.683c-3.207-2.577-5.014-6.414-4.958-10.527c0.055-4.113,1.966-7.9,5.242-10.389 c11.481-8.727,18.268-21.999,18.62-36.417s-5.78-28.005-16.822-37.281c-7.17-6.023-17.866-5.092-23.889,2.078 c-6.023,7.17-5.092,17.866,2.078,23.89c4.254,3.572,4.791,8.104,4.733,10.488c-0.059,2.383-0.817,6.883-5.239,10.245 c-11.642,8.848-18.433,22.308-18.63,36.93c-0.198,14.621,6.226,28.261,17.625,37.42l8.316,6.683 c3.132,2.516,6.883,3.739,10.611,3.739c4.961,0,9.878-2.167,13.228-6.335C178.369,138.838,177.207,128.166,169.907,122.299z"/> </g> </g> <g> <g> <path d="M240.322,131.073l-9.754-7.838c-4.468-3.591-6.987-8.938-6.909-14.67c0.077-5.732,2.74-11.009,7.303-14.478 c12.753-9.692,20.292-24.435,20.681-40.448c0.39-16.013-6.419-31.107-18.684-41.409c-7.17-6.024-17.867-5.094-23.888,2.077 c-6.024,7.17-5.094,17.866,2.076,23.888c4.329,3.636,6.734,8.964,6.595,14.616c-0.138,5.652-2.799,10.856-7.3,14.277 c-12.93,9.826-20.474,24.777-20.693,41.018c-0.22,16.24,6.915,31.39,19.575,41.563l9.754,7.838 c3.132,2.517,6.883,3.739,10.611,3.739c4.961,0,9.878-2.167,13.228-6.335C248.782,147.611,247.62,136.939,240.322,131.073z"/> </g> </g> <g> <g> <path d="M308.086,122.299l-8.316-6.683c-3.207-2.577-5.014-6.414-4.958-10.527c0.055-4.113,1.966-7.9,5.242-10.389 c11.481-8.727,18.268-21.999,18.62-36.417c0.352-14.418-5.78-28.005-16.822-37.281c-7.171-6.023-17.867-5.092-23.889,2.078 c-6.023,7.17-5.092,17.866,2.078,23.89c4.254,3.572,4.791,8.104,4.733,10.488c-0.06,2.383-0.817,6.883-5.239,10.245 c-11.642,8.848-18.433,22.308-18.63,36.93c-0.198,14.621,6.226,28.261,17.625,37.42l8.316,6.683 c3.132,2.516,6.883,3.739,10.611,3.739c4.961,0,9.878-2.167,13.228-6.335C316.548,138.838,315.386,128.166,308.086,122.299z"/> </g> </g> </g>
</svg>