<!DOCTYPE svg PUBLIC "-//W3C//DTD SVG 1.1//EN" "http://www.w3.org/Graphics/SVG/1.1/DTD/svg11.dtd">
<!-- Uploaded to: SVG Repo, www.svgrepo.com, Transformed by: SVG Repo Mixer Tools -->
<svg fill="#ffffff" height="800px" width="800px" version="1.1" id="Layer_1" xmlns="http://www.w3.org/2000/svg" xmlns:xlink="http://www.w3.org/1999/xlink" viewBox="0 0 512 512" xml:space="preserve">
<g id="SVGRepo_bgCarrier" stroke-width="0"/>
<g id="SVGRepo_tracerCarrier" stroke-linecap="round" stroke-linejoin="round"/>
<g id="SVGRepo_iconCarrier"> <g> <g> <path d="M230.278,44.299C208.041,15.732,178.095,0,145.956,0c-32.139,0-62.083,15.734-84.32,44.302 c-21.274,27.332-32.99,63.435-32.988,101.659c0,38.223,11.717,74.326,32.992,101.658c22.238,28.567,52.184,44.3,84.322,44.299 s62.083-15.734,84.32-44.303c21.274-27.332,32.988-63.435,32.988-101.658C263.269,107.734,251.552,71.63,230.278,44.299z M130.909,224.909c-3.725,7.761-7.778,16.214-10.086,28.415c-12.135-5.156-23.355-14.04-32.834-26.217 c-16.734-21.497-25.95-50.316-25.95-81.148s9.214-59.65,25.947-81.148c13.814-17.747,31.323-28.511,49.98-30.908 c-1.568,7.182-4.125,12.535-7.06,18.651c-5.618,11.704-11.985,24.968-11.985,50.31c0,25.344,6.369,38.609,11.986,50.314 c4.86,10.123,8.697,18.119,8.697,35.865S135.768,214.785,130.909,224.909z M203.932,227.106 c-13.814,17.747-31.323,28.511-49.981,30.908c1.569-7.186,4.125-12.54,7.061-18.658c5.617-11.705,11.985-24.971,11.984-50.315 c-0.001-25.344-6.369-38.609-11.986-50.314c-4.86-10.123-8.697-18.119-8.697-35.865c0-17.742,3.838-25.737,8.696-35.859 c3.724-7.76,7.777-16.211,10.086-28.41c12.134,5.154,23.355,14.038,32.834,26.216c16.733,21.498,25.949,50.317,25.951,81.149 C229.879,176.789,220.665,205.608,203.932,227.106z"/> </g> </g> <g> <g> <path d="M450.36,264.381c-22.237-28.567-52.184-44.3-84.322-44.299c-32.139,0-62.083,15.734-84.321,44.302 c-21.272,27.332-32.988,63.435-32.988,101.659c0.001,38.224,11.718,74.326,32.993,101.658 c22.237,28.567,52.184,44.3,84.322,44.299c32.139,0,62.083-15.734,84.321-44.302c21.272-27.332,32.99-63.435,32.988-101.659 C483.351,327.815,471.634,291.712,450.36,264.381z M350.991,444.993c-3.729,7.77-7.786,16.232-10.093,28.454 c-34.028-14.367-58.775-57.08-58.777-107.403c-0.001-58.455,33.389-106.64,75.927-112.056c-1.568,7.183-4.124,12.534-7.06,18.65 c-5.619,11.704-11.986,24.968-11.985,50.31c0.001,25.344,6.369,38.609,11.986,50.314c4.86,10.123,8.697,18.119,8.697,35.866 C359.687,426.873,355.85,434.868,350.991,444.993z M374.033,478.096c1.569-7.185,4.125-12.538,7.061-18.656 c5.617-11.705,11.985-24.971,11.984-50.315c-0.001-25.344-6.369-38.609-11.986-50.314c-4.86-10.123-8.697-18.119-8.697-35.866 c0-17.742,3.837-25.737,8.696-35.858c3.725-7.76,7.778-16.211,10.087-28.409c12.136,5.154,23.355,14.038,32.834,26.214 c16.733,21.497,25.949,50.316,25.949,81.148C449.962,424.495,416.572,472.68,374.033,478.096z"/> </g> </g> </g>
</svg>